<svg id="icon_copy" data-name="icon copy" xmlns="http://www.w3.org/2000/svg" viewBox="0 0 308.48 207.67"><defs><style>.cls-1{fill:#10293f;}.cls-2{fill:#0081df;}</style></defs><title>logo_Icon_FA</title><path class="cls-1" d="M437,279.49s36.61-108.94,180.53-68C617.53,211.5,500.65,195.89,437,279.49Z" transform="translate(-363.84 -164.05)"/><ellipse class="cls-1" cx="499.46" cy="192.57" rx="23.6" ry="29.23" transform="translate(-399.62 36.4) rotate(-21.93)"/><polygon class="cls-1" points="238.13 45.29 308.48 12.98 301.64 34.12 239.48 54.86 238.13 45.29"/><polygon class="cls-1" points="80.85 103.89 0 127.31 21.08 139.92 86.8 112.77 80.85 103.89"/><rect class="cls-1" x="410.86" y="244.66" width="203.49" height="5.97" transform="translate(-417.43 24.29) rotate(-19.81)"/><path class="cls-1" d="M470.39,299.77S507.34,248.14,596.64,235c0,0-11.73,77.38-56.45,116.11C540.2,351.12,513.21,302.52,470.39,299.77Z" transform="translate(-363.84 -164.05)"/><path class="cls-2" d="M424.18,292c78.4,4.74,89.64,88.19,179.56,79.06C536.3,361,504.92,269.23,424.18,292h0Z" transform="translate(-363.84 -164.05)"/><path class="cls-2" d="M389.41,317.52C436,276,482.61,336.27,518.08,355.63c-44.49,6.07-75.55-43.13-128.68-38.1h0Z" transform="translate(-363.84 -164.05)"/><path class="cls-2" d="M368.56,355.09c7.23-39.5,65.36-23.1,91.91-6.42,0,0-60-9.39-91.91,6.42h0Z" transform="translate(-363.84 -164.05)"/></svg>